<svg width="489" height="483" viewBox="0 0 489 483" fill="none" xmlns="http://www.w3.org/2000/svg">
<path d="M3.92054 275L51.4205 482L136.921 438.5C195.721 496.1 281.087 485.167 316.421 472.5L435.421 406C501.021 368 492.421 272.5 479.921 229.5V84.5C479.521 38.5 449.754 9 434.921 0L346.421 46.0001C291.221 -0.799877 214.087 13.8335 182.421 27.0001L82.4205 82.0001C-3.57946 130.4 -5.74613 230.833 3.92054 275Z" fill="#F5F5F5"/>
<path d="M37.9207 260L75.9207 428L124.921 403C136.421 397 142.921 397 156.421 407.5C212.021 458.3 276.921 450 302.421 439.5L415.421 374C462.221 345.6 453.921 268.833 443.921 234V91C443.921 71.8 429.921 54.3333 422.921 47.9999L344.921 91C317.921 58.5 253.921 32.9999 200.421 57L100.421 112.5C37.9205 154 31.4205 219.5 37.9207 260Z" fill="#171717"/>
<path fill-rule="evenodd" clip-rule="evenodd" d="M87 343.5H135L217.373 406.103C218.764 411.785 223.89 416 230 416C237.18 416 243 410.18 243 403C243 397.306 239.339 392.466 234.242 390.708L142 317.5H76L87 343.5Z" fill="#65A30D"/>
<path fill-rule="evenodd" clip-rule="evenodd" d="M295.959 384.744C295.986 384.333 296 383.918 296 383.5C296 380.667 295.363 377.983 294.225 375.583C319.249 380.108 350.278 380.757 372.5 367C414.5 341 423 315.5 424 293L335 280.5C316.5 277.5 291.8 257.1 329 235.5L424 180L415.5 171V80L200.027 207.307L295.959 384.744Z" fill="#84CC16"/>
<path fill-rule="evenodd" clip-rule="evenodd" d="M214.921 198.508L132 247.5L62 249L66.5 279H144.5L262.5 367C263.79 367.493 265.18 367.997 266.661 368.506C262.019 371.867 259 377.331 259 383.5C259 393.717 267.283 402 277.5 402C287.717 402 296 393.717 296 383.5C296 380.667 295.363 377.983 294.225 375.583C300.157 376.656 306.426 377.511 312.835 378.007L214.921 198.508Z" fill="#65A30D"/>
<path d="M275 257.5C275 278.211 258.211 295 237.5 295C216.789 295 200 278.211 200 257.5C200 236.789 216.789 220 237.5 220C258.211 220 275 236.789 275 257.5Z" fill="#171717"/>
<path d="M254 257.5C254 266.613 246.613 274 237.5 274C228.387 274 221 266.613 221 257.5C221 248.387 228.387 241 237.5 241C246.613 241 254 248.387 254 257.5Z" fill="#65A30D"/>
<path fill-rule="evenodd" clip-rule="evenodd" d="M170.549 120.552C171.062 122.637 171.918 124.587 173.055 126.337L142.548 145.778C139.063 141.634 133.839 139 128 139C117.507 139 109 147.507 109 158C109 168.493 117.507 177 128 177C135.675 177 142.287 172.449 145.286 165.898L182.867 141.86L170.549 120.552ZM189.589 153.488L135.5 186.5H72L64 215.5L134.5 216.5L202.107 175.14L189.589 153.488Z" fill="#65A30D"/>
<path fill-rule="evenodd" clip-rule="evenodd" d="M201.637 175.428L262 138.5V111.494C266.842 108.05 270 102.394 270 96C270 85.5066 261.493 77 251 77C240.507 77 232 85.5066 232 96C232 102.948 235.729 109.025 241.295 112.338L242 121.5L189.119 153.775L201.637 175.428ZM182.402 142.157L195.22 133.959C202.658 131.383 208 124.315 208 116C208 105.507 199.493 97 189 97C178.507 97 170 105.507 170 116C170 118.48 170.475 120.849 171.339 123.021L182.402 142.157Z" fill="#84CC16"/>
</svg>
